<?xml version="1.0" encoding="UTF-8" standalone="no"?>
<svg width="195px" height="32px" viewBox="0 0 195 32" version="1.1" xmlns="http://www.w3.org/2000/svg" xmlns:xlink="http://www.w3.org/1999/xlink" xmlns:sketch="http://www.bohemiancoding.com/sketch/ns">
    <!-- Generator: Sketch 3.5.1 (25234) - http://www.bohemiancoding.com/sketch -->
    <title>Red Babel.</title>
    <desc>Created with Sketch.</desc>
    <defs></defs>
    <g id="Page-1" stroke="none" stroke-width="1" fill="none" fill-rule="evenodd" sketch:type="MSPage">
        <g id="logo-+-9-512-copy-+-Red-Babel." sketch:type="MSLayerGroup" transform="translate(-48.000000, -1.000000)" fill="#595968">
            <path d="M48.7118163,32 L48.7118163,3.2382818 L57.4180662,3.2382818 C60.1776502,3.2382818 62.2926518,3.84719497 63.7631344,5.06503958 C65.233617,6.28288419 65.9688473,8.0513235 65.9688473,10.3704106 C65.9688473,14.2053255 64.0319851,16.9260014 60.1582028,18.5325198 L69.758398,32 L64.7445309,32 L56.5629881,19.8345705 L52.7540038,19.8345705 L52.7540038,32 L48.7118163,32 Z M52.7540038,16.7834964 L54.0754881,16.7834964 C59.2059824,16.7834964 61.7711911,14.7689007 61.7711911,10.7396488 C61.7711911,7.77277209 59.6205616,6.28935596 55.3192381,6.28935596 L52.7540038,6.28935596 L52.7540038,16.7834964 Z M89.4640616,31.3198242 C86.8988145,32.0971719 84.7028404,32.4858398 82.8760735,32.4858398 C79.766683,32.4858398 77.2306244,31.4526308 75.2678217,29.3861817 C73.3050189,27.3197326 72.3236323,24.6411624 72.3236323,21.3503908 C72.3236323,18.1503098 73.1884185,15.5268009 74.918017,13.4797855 C76.6476155,11.4327701 78.8597841,10.4092778 81.5545891,10.4092778 C84.1068805,10.4092778 86.0793705,11.3161697 87.4721183,13.1299808 C88.8648661,14.9437919 89.5612296,17.5219562 89.5612296,20.864551 L89.541796,22.0500002 L76.2297846,22.0500002 C76.7868837,27.0638924 79.2419698,29.5708008 83.5951164,29.5708008 C85.1886791,29.5708008 87.1449746,29.143266 89.4640616,28.2881837 L89.4640616,31.3198242 Z M76.4046869,19.1738284 L85.7133781,19.1738284 C85.7133781,15.2482229 84.2493954,13.2854496 81.321386,13.2854496 C78.3804209,13.2854496 76.7415375,15.2482229 76.4046869,19.1738284 L76.4046869,19.1738284 Z M109.713866,32 L109.713866,28.035547 C108.159171,31.0024237 105.814207,32.4858398 102.678905,32.4858398 C100.13957,32.4858398 98.1411684,31.5595145 96.6836416,29.706836 C95.2261148,27.8541575 94.4973623,25.3213378 94.4973623,22.108301 C94.4973623,18.5972809 95.3232818,15.7729602 96.9751455,13.6352543 C98.6270092,11.4975483 100.800311,10.4287114 103.495116,10.4287114 C105.995584,10.4287114 108.06848,11.3874257 109.713866,13.3048832 L109.713866,1.31435606 L113.561717,1.31435606 L113.561717,32 L109.713866,32 Z M109.713866,15.9284183 C107.73163,14.1793861 105.853068,13.3048832 104.078124,13.3048832 C100.411634,13.3048832 98.5784169,16.1097704 98.5784169,21.7196291 C98.5784169,26.6557865 100.210822,29.1238282 103.475682,29.1238282 C105.600433,29.1238282 107.679806,27.964302 109.713866,25.645215 L109.713866,15.9284183 Z M133.69492,32 L133.69492,3.2382818 L141.15742,3.2382818 C144.033606,3.2382818 146.239297,3.78241697 147.774559,4.87070365 C149.30982,5.95899032 150.077439,7.52661784 150.077439,9.57363324 C150.077439,13.0587417 148.108188,15.539739 144.169627,17.0166995 C148.87258,18.4547926 151.224021,21.0523903 151.224021,24.8095705 C151.224021,27.1416133 150.446685,28.9230082 148.89199,30.1538086 C147.337295,31.384609 145.095976,32 142.167967,32 L133.69492,32 Z M137.737108,28.9489258 L138.572752,28.9489258 C141.56554,28.9489258 143.502403,28.7610696 144.383397,28.3853516 C146.06765,27.672783 146.909764,26.3513118 146.909764,24.4208986 C146.909764,22.7107338 146.145383,21.2888568 144.6166,20.1552248 C143.087816,19.0215929 141.176865,18.4547854 138.88369,18.4547854 L137.737108,18.4547854 L137.737108,28.9489258 Z M137.737108,15.8701175 L139.039158,15.8701175 C141.215732,15.8701175 142.903199,15.4037159 144.101609,14.4708988 C145.30002,13.5380816 145.899217,12.2230883 145.899217,10.5258793 C145.899217,7.70151629 143.709721,6.28935596 139.330662,6.28935596 L137.737108,6.28935596 L137.737108,15.8701175 Z M167.587107,29.3181641 C165.293932,31.4299585 163.085002,32.4858398 160.960252,32.4858398 C159.21122,32.4858398 157.760192,31.9384658 156.607127,30.8437012 C155.454061,29.7489366 154.877537,28.3659264 154.877537,26.694629 C154.877537,24.3884977 155.845968,22.6168195 157.782859,21.3795412 C159.71975,20.1422629 162.495487,19.5236331 166.110154,19.5236331 L167.023533,19.5236331 L167.023533,16.9778323 C167.023533,14.5291873 165.76684,13.3048832 163.253416,13.3048832 C161.232312,13.3048832 159.049293,13.9267519 156.704295,15.1705081 L156.704295,12.0028324 C159.282498,10.9534131 161.698717,10.4287114 163.953025,10.4287114 C166.31098,10.4287114 168.050269,10.9598909 169.170945,12.022266 C170.291621,13.0846411 170.851951,14.73648 170.851951,16.9778323 L170.851951,26.5391603 C170.851951,28.7286894 171.525642,29.8234375 172.873044,29.8234375 C173.04147,29.8234375 173.287626,29.7975263 173.611521,29.7457032 L173.883591,31.8639648 C173.015553,32.2785502 172.056839,32.4858398 171.007419,32.4858398 C169.21952,32.4858398 168.079427,31.4299585 167.587107,29.3181641 L167.587107,29.3181641 Z M167.023533,27.2387696 L167.023533,21.7779299 L165.740916,21.7390627 C163.642077,21.7390627 161.944894,22.1374474 160.649314,22.9342287 C159.353735,23.73101 158.705955,24.7771747 158.705955,26.072754 C158.705955,26.9926154 159.029845,27.7699513 159.677635,28.4047852 C160.325424,29.0396191 161.115716,29.3570313 162.048533,29.3570313 C163.642096,29.3570313 165.300412,28.6509511 167.023533,27.2387696 L167.023533,27.2387696 Z M178.683689,32.2332031 L178.683689,1.31435606 L182.512107,1.31435606 L182.512107,14.8595706 C184.079758,11.9056497 186.431199,10.4287114 189.566501,10.4287114 C192.105837,10.4287114 194.104238,11.3550367 195.561765,13.2077152 C197.019291,15.0603937 197.748044,17.5932134 197.748044,20.8062502 C197.748044,24.3043145 196.922124,27.1253963 195.270261,29.2695801 C193.618397,31.413764 191.445095,32.4858398 188.75029,32.4858398 C186.249822,32.4858398 184.170448,31.5271255 182.512107,29.609668 L182.0457,32.2332031 L178.683689,32.2332031 Z M182.512107,26.9666993 C184.481387,28.7286873 186.359949,29.609668 188.147849,29.609668 C191.827294,29.609668 193.666989,26.8047808 193.666989,21.1949221 C193.666989,16.2458089 192.034584,13.7712894 188.769724,13.7712894 C186.632018,13.7712894 184.546166,14.9308156 182.512107,17.2499026 L182.512107,26.9666993 Z M219.202731,31.3198242 C216.637484,32.0971719 214.44151,32.4858398 212.614743,32.4858398 C209.505352,32.4858398 206.969294,31.4526308 205.006491,29.3861817 C203.043688,27.3197326 202.062302,24.6411624 202.062302,21.3503908 C202.062302,18.1503098 202.927088,15.5268009 204.656686,13.4797855 C206.386285,11.4327701 208.598453,10.4092778 211.293259,10.4092778 C213.84555,10.4092778 215.81804,11.3161697 217.210788,13.1299808 C218.603536,14.9437919 219.299899,17.5219562 219.299899,20.864551 L219.280465,22.0500002 L205.968454,22.0500002 C206.525553,27.0638924 208.980639,29.5708008 213.333786,29.5708008 C214.927348,29.5708008 216.883644,29.143266 219.202731,28.2881837 L219.202731,31.3198242 Z M206.143356,19.1738284 L215.452048,19.1738284 C215.452048,15.2482229 213.988065,13.2854496 211.060055,13.2854496 C208.11909,13.2854496 206.480207,15.2482229 206.143356,19.1738284 L206.143356,19.1738284 Z M225.907321,32 L225.907321,1.31435606 L229.735739,1.31435606 L229.735739,32 L225.907321,32 Z M237.470309,32 L237.470309,27.1999024 L242.270406,27.1999024 L242.270406,32 L237.470309,32 Z" id="Red-Babel." sketch:type="MSShapeGroup"></path>
        </g>
    </g>
</svg>