<?xml version="1.0" encoding="UTF-8" standalone="no"?>
<svg width="32px" height="32px" viewBox="0 0 32 32" version="1.1" xmlns="http://www.w3.org/2000/svg" xmlns:xlink="http://www.w3.org/1999/xlink" xmlns:sketch="http://www.bohemiancoding.com/sketch/ns">
    <!-- Generator: Sketch 3.5.1 (25234) - http://www.bohemiancoding.com/sketch -->
    <title>9-512 copy 4</title>
    <desc>Created with Sketch.</desc>
    <defs></defs>
    <g id="Page-1" stroke="none" stroke-width="1" fill="none" fill-rule="evenodd" sketch:type="MSPage">
        <g id="logo-+-9-512-copy-+-Red-Babel." sketch:type="MSLayerGroup" fill="#DC686E">
            <g id="9-512-copy-4" sketch:type="MSShapeGroup">
                <path d="M13.3352449,0.179717587 C12.8022939,0.243902439 12.2693429,0.359435173 11.7677419,0.55198973 C8.35058542,1.88703466 9.9651135,5.80231065 11.3915412,7.83055199 C11.7050418,8.27984596 12.0342174,8.71630295 12.4417682,9.11424904 C13.4763202,10.1283697 14.965448,10.8344031 16.6270012,10.6161746 C19.8560573,10.1797176 21.6743608,6.72657253 22.1446117,4.36456996 C22.3483871,3.37612323 22.285687,2.2593068 21.5332855,1.41206675 C20.2322581,-0.0513478819 17.8026284,0.128369705 15.8432497,0.128369705 C15.0124731,0.128369705 14.1503465,0.0770218228 13.3352449,0.179717587 L13.3352449,0.179717587 Z" id="Shape"></path>
                <path d="M10.2002389,11.6046213 C5.23125448,12.2464698 3.78915173,17.9332478 7.84898447,20.3080873 C9.27541219,21.1424904 10.8899403,21.0526316 12.5514934,21.0526316 L18.8215054,21.0526316 C19.8874074,21.0526316 21.0473596,21.1553273 22.1132616,21.0141207 C26.8627957,20.3594352 27.9913978,14.6726573 24.3077658,12.4518614 C22.7089128,11.4890886 20.8592593,11.5661104 18.9782557,11.5661104 C16.1410753,11.5532734 13.0060693,11.2451861 10.2002389,11.6046213 L10.2002389,11.6046213 Z" id="Shape"></path>
                <path d="M5.34097969,22.0025674 C3.72645161,22.195122 2.37839904,22.6572529 1.34384707,23.7483954 C-0.75660693,25.9691913 -0.00420549582,29.7817715 3.14647551,31.0654685 C5.26260454,31.9383825 8.06843489,31.5789474 10.3569892,31.5789474 L21.4862605,31.5789474 C23.4613142,31.5789474 25.6558184,31.7971759 27.5995221,31.4249037 C32.6782318,30.449294 33.3522581,24.0821566 28.5400239,22.3876765 C26.2984946,21.5917843 23.2575388,21.9640565 20.8592593,21.9640565 L10.6704898,21.9640565 C8.93056153,21.9512195 7.06523297,21.7971759 5.34097969,22.0025674 L5.34097969,22.0025674 Z" id="Shape"></path>
            </g>
        </g>
    </g>
</svg>